<?xml version="1.0" standalone="no"?><!DOCTYPE svg PUBLIC "-//W3C//DTD SVG 1.1//EN" "http://www.w3.org/Graphics/SVG/1.1/DTD/svg11.dtd"><svg t="1547889467657" class="icon" style="" viewBox="0 0 1024 1024" version="1.1" xmlns="http://www.w3.org/2000/svg" p-id="4129" xmlns:xlink="http://www.w3.org/1999/xlink" width="200" height="200"><defs><style type="text/css">html, * { user-select: text !important; }
</style></defs><path d="M850.285568 434.967552c-14.002176-29.860864-30.932992-57.3184-50.123776-82.347008-13.113344 11.911168-26.66496 24.009728-40.587264 36.240384-54.23616 47.660032-132.42368 118.336512-136.25344 127.873024-3.830784 9.537536-26.658816 93.355008-154.625024 126.409728-29.575168 5.8368-74.790912 40.09472-84.134912 31.648768-20.086784-13.089792 0.72704-98.890752 17.552384-135.743488 16.8192-36.84864 55.624704-99.703808 87.148544-104.9088 31.525888-5.20704 113.813504-78.413824 175.966208-133.028864 14.94528-13.131776 29.693952-25.883648 44.178432-38.15936C570.841088 158.51008 387.697664 135.314432 283.292672 199.635968c-147.82976 91.072512-162.248704 304.744448-32.20992 477.25056 130.03776 172.505088 387.966976 235.76576 539.708416 145.545216 33.788928-18.593792-39.831552-142.377984-39.667712-200.210432C751.291392 564.389888 877.099008 490.08128 850.285568 434.967552zM482.390016 205.70112c38.808576 0 70.270976 28.442624 70.270976 63.526912 0 35.085312-31.4624 63.527936-70.270976 63.527936s-70.270976-28.442624-70.270976-63.527936C412.11904 234.143744 443.58144 205.70112 482.390016 205.70112zM275.8144 475.84256c-38.808576 0-70.269952-28.442624-70.269952-63.527936s31.461376-63.527936 70.269952-63.527936c38.8096 0 70.273024 28.442624 70.273024 63.527936S314.624 475.84256 275.8144 475.84256zM638.8736 807.844864c-38.810624 0-70.26688-28.444672-70.26688-63.524864 0-35.08736 31.456256-63.531008 70.26688-63.531008 38.812672 0 70.278144 28.443648 70.278144 63.531008C709.151744 779.400192 677.686272 807.844864 638.8736 807.844864z" p-id="4130"></path><path d="M607.823872 462.45376l-19.463168-17.094656c-10.689536-9.37984-27.437056-8.761344-37.239808 1.374208 0 0-12.171264 12.589056-23.446528 28.178432-6.670336-0.487424-14.144512 0.013312-22.495232 1.924096-51.068928 11.686912-68.959232 61.017088-68.959232 61.017088s-25.01632 81.507328-11.664384 90.20928c6.209536 5.614592 28.873728-24.163328 48.529408-28.040192 96.483328-24.923136 105.171968-65.942528 103.67488-84.465664 16.838656-9.762816 30.004224-20.04992 30.004224-20.04992C618.031104 486.705152 618.509312 471.831552 607.823872 462.45376z" p-id="4131"></path><path d="M859.22304 216.342528c-21.03808-19.014656-158.209024 83.58912-252.450816 166.406144-11.508736 10.109952-14.222336 12.490752-14.222336 12.490752-10.688512 9.36448-10.7008 24.69888-0.024576 34.076672l25.92768 22.762496c10.678272 9.377792 28.080128 9.31328 38.675456-0.145408 0 0 1.47968-1.323008 12.345344-10.870784C763.71968 358.249472 880.684032 235.744256 859.22304 216.342528z" p-id="4132"></path></svg>