<?xml version="1.0" standalone="no"?><!DOCTYPE svg PUBLIC "-//W3C//DTD SVG 1.1//EN" "http://www.w3.org/Graphics/SVG/1.1/DTD/svg11.dtd"><svg t="1547889302583" class="icon" style="" viewBox="0 0 1024 1024" version="1.1" xmlns="http://www.w3.org/2000/svg" p-id="3809" xmlns:xlink="http://www.w3.org/1999/xlink" width="200" height="200"><defs><style type="text/css">html, * { user-select: text !important; }
</style></defs><path d="M428.1856 960.00512a40.96512 40.96512 0 0 1-40.6784-45.74208l39.13728-333.30176H310.02112a40.97024 40.97024 0 0 1-40.25344-48.5376l81.92-435.0464a40.96 40.96 0 0 1 40.25344-33.3824h307.2a40.96 40.96 0 0 1 34.7904 62.58176l-145.42336 233.98912h125.47584a40.96 40.96 0 0 1 35.85536 60.76416l-285.7984 517.50912a40.96 40.96 0 0 1-35.85536 21.16608zM359.41376 499.0464h113.28a40.98048 40.98048 0 0 1 40.68352 45.73696l-20.1728 171.8016 151.36768-274.09408h-129.75104a40.96 40.96 0 0 1-34.7904-62.58176L625.45408 145.92H425.91232L359.41376 499.0464z" p-id="3810"></path></svg>