<?xml version="1.0" standalone="no"?><!DOCTYPE svg PUBLIC "-//W3C//DTD SVG 1.1//EN" "http://www.w3.org/Graphics/SVG/1.1/DTD/svg11.dtd"><svg t="1547889547752" class="icon" style="" viewBox="0 0 1024 1024" version="1.1" xmlns="http://www.w3.org/2000/svg" p-id="6390" xmlns:xlink="http://www.w3.org/1999/xlink" width="200" height="200"><defs><style type="text/css">html, * { user-select: text !important; }
</style></defs><path d="M490.667 746.112C299.84 735.531 148.33 577.002 148.33 383.019c0-70.23 19.84-135.808 54.229-191.382 43.392 3.627 99.179 12.246 148.715 32.278 10.154 4.48 29.824 13.674 39.146 19.264 2.603-10.795 9.387-31.936 12.694-41.92C425.963 139.86 463.317 94.74 512 64.085c51.413 30.464 84.8 76.438 108.01 136.747 3.137 9.024 11.307 32.725 14.08 42.347 7.894-6.166 28.353-16.939 38.06-21.76 44.949-19.243 102.271-27.136 146.986-30.294a362.688 362.688 0 0 1 54.528 191.872c0 193.344-150.443 351.424-340.33 362.987V960a21.333 21.333 0 0 1-42.667 0V746.112zM385.92 926.187C338.837 822.997 251.157 768.533 149.227 768a21.333 21.333 0 1 1 0.213-42.667c118.272 0.598 221.184 64.555 275.307 183.147a21.333 21.333 0 1 1-38.827 17.707z m213.333-17.707c54.123-118.613 157.035-182.55 275.307-183.147a21.333 21.333 0 1 1 0.213 42.667c-101.93 0.512-189.61 54.997-236.693 158.187a21.333 21.333 0 1 1-38.827-17.707z m61.056-631.659a42.667 42.667 0 0 1-67.242-21.888c-22.059-77.077-42.24-106.389-81.003-138.389-38.912 32-65.856 77.077-80.15 136.597a42.667 42.667 0 0 1-63.402 26.646c-42.325-25.344-75.37-37.398-142.464-43.008a320.277 320.277 0 0 0-35.05 146.218c0 177.323 143.295 321.003 320 321.003 176.703 0 320-143.68 320-321.003 0-51.84-12.225-101.781-35.243-146.645-71.787 5.056-105.174 16.875-135.446 40.47z" p-id="6391"></path></svg>