<?xml version="1.0" standalone="no"?><!DOCTYPE svg PUBLIC "-//W3C//DTD SVG 1.1//EN" "http://www.w3.org/Graphics/SVG/1.1/DTD/svg11.dtd"><svg t="1547889580028" class="icon" style="" viewBox="0 0 1024 1024" version="1.1" xmlns="http://www.w3.org/2000/svg" p-id="7098" xmlns:xlink="http://www.w3.org/1999/xlink" width="200" height="200"><defs><style type="text/css">html, * { user-select: text !important; }
</style></defs><path d="M785.844925 231.357252l173.809581 88.405469L907.154805 345.56334c21.658276 51.191916 33.845853 107.345844 33.845853 166.434613 0 236.931201-192.069457 429.002704-429.000658 429.002704-75.93546 0-147.137105-19.915585-209.011314-54.527894l43.397393-43.397393c49.889247 25.00858 106.008382 39.422871 165.613922 39.422871 204.621331 0 370.501312-165.878958 370.501312-370.501312 0-54.906517-12.678764-106.618273-34.155914-153.463184L785.844925 231.357252zM521.750061 706.998159l-19.500123 0c-5.383614 0-9.750061-4.364401-9.750061-9.748015L492.499877 389.541971 333.931418 548.110429c-3.808746 3.808746-9.982352 3.808746-13.788028 0l-13.790074-13.788028c-3.806699-3.806699-3.806699-9.980305 0-13.788028l184.963619-184.963619 0 0 13.788028-13.788028c3.808746-3.806699 9.982352-3.806699 13.790074 0l13.788028 13.788028 0 0 184.961572 184.963619c3.808746 3.808746 3.808746 9.982352 0 13.788028l-13.788028 13.788028c-3.806699 3.808746-9.980305 3.808746-13.788028 0L531.500123 389.541971l0 307.709197C531.500123 702.633758 527.133675 706.998159 521.750061 706.998159zM512 141.496641c-204.621331 0-370.500289 165.878958-370.500289 370.501312 0 54.908564 12.678764 106.618273 34.155914 153.463184l62.499449 127.177518-173.809581-88.403422 52.499701-25.802666c-21.658276-51.191916-33.845853-107.345844-33.845853-166.434613 0-236.929154 192.069457-428.998611 429.000658-428.998611 75.93546 0 147.137105 19.913539 209.011314 54.525847l-43.397393 43.395346C627.726721 155.912979 571.605539 141.496641 512 141.496641z" p-id="7099"></path></svg>